<svg width="1041.7" height="77.4" viewBox="0 0 1041.7 77.4"
  xmlns="http://www.w3.org/2000/svg">
  <g id="svgGroup" stroke-linecap="round" fill-rule="evenodd" font-size="9pt" stroke="#3836FD" stroke-width="0.25mm" fill="#3836FD" style="stroke:#3836FD;stroke-width:0.25mm;fill:#3836FD">
    <path d="M 92.1 72.1 L 77.5 75.5 A 3607.132 3607.132 0 0 0 82.52 50.989 A 3262.816 3262.816 0 0 0 83.2 47.6 A 951.149 951.149 0 0 1 85.065 37.144 A 1053.786 1053.786 0 0 1 85.35 35.6 Q 86.5 29.4 87.5 23.35 Q 88.5 17.3 89.3 11.75 A 220.028 220.028 0 0 0 89.995 6.502 Q 90.298 3.968 90.5 1.7 A 41.082 41.082 0 0 0 91.419 1.761 Q 92.138 1.8 92.7 1.8 L 94.8 1.8 Q 95.763 1.8 97.009 1.776 A 197.938 197.938 0 0 0 98.2 1.75 Q 100.2 1.7 102.2 1.6 Q 104.2 1.5 106.5 1.4 A 475.994 475.994 0 0 1 108.431 11.619 A 422.076 422.076 0 0 1 109 14.9 Q 110.1 20.6 111.25 26.6 A 673.089 673.089 0 0 0 112.077 30.847 Q 112.407 32.511 112.713 33.999 A 336.46 336.46 0 0 0 113.3 36.8 A 346.539 346.539 0 0 0 113.669 34.926 Q 113.856 33.962 114.061 32.882 A 620.737 620.737 0 0 0 114.2 32.15 A 312.127 312.127 0 0 1 115.006 28.034 A 358.681 358.681 0 0 1 115.3 26.6 Q 115.9 23.7 116.45 20.75 Q 117 17.8 117.6 14.9 Q 119 8.4 120.5 1.5 L 132.7 0 Q 129.3 15.3 126.7 29 Q 125.5 34.9 124.35 40.95 A 1275.455 1275.455 0 0 0 122.709 49.744 A 1116.437 1116.437 0 0 0 122.2 52.55 Q 121.2 58.1 120.5 62.85 A 573.88 573.88 0 0 0 120.169 65.128 Q 119.715 68.295 119.42 70.644 A 200.865 200.865 0 0 0 119.4 70.8 A 1.452 1.452 0 0 0 119.226 70.816 Q 118.716 70.884 117.05 71.25 A 594.143 594.143 0 0 0 115.141 71.672 Q 114.166 71.89 113.083 72.134 A 1018.838 1018.838 0 0 0 112.35 72.3 L 107.05 73.5 A 60.774 60.774 0 0 0 105.809 73.794 Q 104.498 74.12 103.621 74.414 A 12.664 12.664 0 0 0 103.1 74.6 Q 102.5 66.6 101.8 59.4 Q 101.5 56.3 101.15 53.05 Q 100.8 49.8 100.4 46.8 Q 100 43.8 99.6 41.2 A 111.661 111.661 0 0 0 99.3 39.348 Q 99.05 37.888 98.8 36.7 Q 98.594 38.006 98.293 39.596 A 147.272 147.272 0 0 1 98 41.1 Q 97.5 43.6 97 46.4 Q 96.5 49.2 96 52.25 Q 95.5 55.3 94.9 58.1 Q 93.6 64.8 92.1 72.1 Z M 875.9 72.1 L 861.3 75.5 A 3607.132 3607.132 0 0 0 866.32 50.989 A 3262.816 3262.816 0 0 0 867 47.6 A 951.149 951.149 0 0 1 868.865 37.144 A 1053.786 1053.786 0 0 1 869.15 35.6 Q 870.3 29.4 871.3 23.35 Q 872.3 17.3 873.1 11.75 A 220.028 220.028 0 0 0 873.795 6.502 Q 874.098 3.968 874.3 1.7 A 41.082 41.082 0 0 0 875.219 1.761 Q 875.938 1.8 876.5 1.8 L 878.6 1.8 Q 879.563 1.8 880.809 1.776 A 197.938 197.938 0 0 0 882 1.75 Q 884 1.7 886 1.6 Q 888 1.5 890.3 1.4 A 475.994 475.994 0 0 1 892.231 11.619 A 422.076 422.076 0 0 1 892.8 14.9 Q 893.9 20.6 895.05 26.6 A 673.089 673.089 0 0 0 895.877 30.847 Q 896.207 32.511 896.513 33.999 A 336.46 336.46 0 0 0 897.1 36.8 A 346.539 346.539 0 0 0 897.469 34.926 Q 897.656 33.962 897.861 32.882 A 620.737 620.737 0 0 0 898 32.15 A 312.127 312.127 0 0 1 898.806 28.034 A 358.681 358.681 0 0 1 899.1 26.6 Q 899.7 23.7 900.25 20.75 Q 900.8 17.8 901.4 14.9 Q 902.8 8.4 904.3 1.5 L 916.5 0 Q 913.1 15.3 910.5 29 Q 909.3 34.9 908.15 40.95 A 1275.455 1275.455 0 0 0 906.509 49.744 A 1116.437 1116.437 0 0 0 906 52.55 Q 905 58.1 904.3 62.85 A 573.88 573.88 0 0 0 903.969 65.128 Q 903.515 68.295 903.22 70.644 A 200.865 200.865 0 0 0 903.2 70.8 A 1.452 1.452 0 0 0 903.026 70.816 Q 902.516 70.884 900.85 71.25 A 594.143 594.143 0 0 0 898.941 71.672 Q 897.966 71.89 896.883 72.134 A 1018.838 1018.838 0 0 0 896.15 72.3 L 890.85 73.5 A 60.774 60.774 0 0 0 889.609 73.794 Q 888.298 74.12 887.421 74.414 A 12.664 12.664 0 0 0 886.9 74.6 Q 886.3 66.6 885.6 59.4 Q 885.3 56.3 884.95 53.05 Q 884.6 49.8 884.2 46.8 Q 883.8 43.8 883.4 41.2 A 111.661 111.661 0 0 0 883.1 39.348 Q 882.85 37.888 882.6 36.7 Q 882.394 38.006 882.093 39.596 A 147.272 147.272 0 0 1 881.8 41.1 Q 881.3 43.6 880.8 46.4 Q 880.3 49.2 879.8 52.25 Q 879.3 55.3 878.7 58.1 Q 877.4 64.8 875.9 72.1 Z M 695.1 72 L 679.7 75.2 Q 682.5 61.2 685.1 47.9 A 3527.248 3527.248 0 0 1 686.656 39.097 A 3952.388 3952.388 0 0 1 687.2 36.05 Q 688.3 29.9 689.25 23.9 A 1548.346 1548.346 0 0 0 690.836 13.668 A 1411.326 1411.326 0 0 0 691.05 12.25 Q 691.9 6.6 692.4 2 Q 694.7 2.1 696.65 2.25 Q 698.6 2.4 700.5 2.5 Q 702.4 2.6 704.35 2.65 Q 706.3 2.7 708.6 2.7 Q 706.9 9.8 705.25 16.9 Q 703.6 24 702.2 31.2 L 712.1 30.1 A 467.099 467.099 0 0 0 714.031 19.703 A 419.607 419.607 0 0 0 714.6 16.35 A 161.645 161.645 0 0 1 716.644 6.122 A 183.129 183.129 0 0 1 717.5 2.6 Q 719.8 2.2 722.6 1.95 Q 725.4 1.7 727.8 1.5 A 776.357 776.357 0 0 0 729.495 1.357 Q 730.157 1.3 730.746 1.249 A 371.923 371.923 0 0 0 731.85 1.15 L 733.5 1 A 128.428 128.428 0 0 0 731.972 6.331 A 161.526 161.526 0 0 0 730.85 10.85 A 472.373 472.373 0 0 0 728.701 20.519 A 521.712 521.712 0 0 0 728.4 21.95 Q 727.2 27.7 726.1 33.6 Q 725 39.5 724.1 44.8 Q 721.9 57.5 720 70.8 L 704.4 72.6 A 302.229 302.229 0 0 0 706.574 61.614 A 276.427 276.427 0 0 0 706.7 60.9 Q 707.7 56.1 708.75 50.9 A 329.005 329.005 0 0 0 709.474 47.211 Q 709.75 45.762 709.981 44.459 A 166.051 166.051 0 0 0 710.4 42 L 700.7 42.9 A 1281.328 1281.328 0 0 1 700.04 46.455 Q 699.584 48.888 699.05 51.7 Q 698.1 56.7 697.3 61.2 L 695.1 72 Z M 962.8 17.5 L 949.1 20.1 A 24.645 24.645 0 0 0 948.546 18.032 Q 947.899 16.002 947.032 14.815 A 5.772 5.772 0 0 0 946.7 14.4 Q 945.2 12.7 943.3 12.7 A 4.321 4.321 0 0 0 941.439 13.158 Q 940.028 13.83 938.479 15.486 A 20.204 20.204 0 0 0 937.8 16.25 Q 934.8 19.8 932.2 25.4 A 71.949 71.949 0 0 0 929.003 33.62 A 85.91 85.91 0 0 0 927.8 37.7 Q 926 44.4 925.8 50.9 Q 925.8 55.936 927.021 58.63 A 6.995 6.995 0 0 0 927.65 59.75 Q 929.5 62.4 932.4 62.4 A 8.904 8.904 0 0 0 934.926 62.019 A 11.711 11.711 0 0 0 936.55 61.4 A 12.136 12.136 0 0 0 940.28 58.679 A 13.834 13.834 0 0 0 940.4 58.55 A 16.683 16.683 0 0 0 942.949 54.862 A 19.05 19.05 0 0 0 943.25 54.25 A 13.401 13.401 0 0 0 944.472 49.44 A 15.507 15.507 0 0 0 944.5 48.9 L 933.8 50.5 L 935.7 40.6 Q 940.4 40 944.9 39.4 Q 948.7 38.9 952.95 38.2 Q 957.2 37.5 960.4 36.9 A 63.901 63.901 0 0 1 959.202 45.74 Q 958.179 50.58 956.4 54.65 Q 953.1 62.2 948.45 67.3 A 36.014 36.014 0 0 1 943.469 71.868 A 28.386 28.386 0 0 1 938.45 74.9 A 29.026 29.026 0 0 1 933.874 76.609 Q 931.022 77.394 928.342 77.4 A 18.4 18.4 0 0 1 928.3 77.4 Q 924.6 77.4 921.25 75.8 Q 917.9 74.2 915.45 70.95 A 20.973 20.973 0 0 1 913.203 67.16 Q 912.34 65.305 911.691 63.114 A 35.07 35.07 0 0 1 911.6 62.8 A 34.209 34.209 0 0 1 910.595 57.833 Q 910.274 55.374 910.214 52.598 A 59.874 59.874 0 0 1 910.2 51.3 Q 910.2 38.4 913.9 28.8 A 60.927 60.927 0 0 1 917.942 20.251 A 45.781 45.781 0 0 1 923.25 12.8 A 44.58 44.58 0 0 1 929.006 7.299 A 33.98 33.98 0 0 1 935.35 3.3 A 35.391 35.391 0 0 1 940.45 1.293 Q 943.395 0.405 946.143 0.238 A 20.783 20.783 0 0 1 947.4 0.2 A 19.353 19.353 0 0 1 950.699 0.468 A 14.066 14.066 0 0 1 954.35 1.6 A 14.183 14.183 0 0 1 957.91 3.974 A 12.883 12.883 0 0 1 959.2 5.35 A 14.497 14.497 0 0 1 961.721 10.075 A 16.942 16.942 0 0 1 961.95 10.85 A 25.073 25.073 0 0 1 962.787 16.63 A 28.298 28.298 0 0 1 962.8 17.5 Z M 203.1 66.2 L 210.5 51.7 A 8.808 8.808 0 0 0 211.278 52.888 Q 211.695 53.431 212.23 53.982 A 15.883 15.883 0 0 0 212.6 54.35 Q 214 55.7 215.75 56.7 A 24.192 24.192 0 0 0 218.594 58.094 A 21.646 21.646 0 0 0 219.25 58.35 Q 221 59 222.4 59 Q 223.6 59 224.9 58.6 Q 226.2 58.2 227.3 57.4 A 6.922 6.922 0 0 0 228.537 56.257 A 6.049 6.049 0 0 0 229.05 55.55 Q 229.7 54.5 229.7 53.1 A 7.158 7.158 0 0 0 228.341 48.912 A 8.911 8.911 0 0 0 228.15 48.65 A 20.653 20.653 0 0 0 225.92 46.166 A 25.545 25.545 0 0 0 224.3 44.75 A 92.61 92.61 0 0 0 220.948 42.183 A 109.444 109.444 0 0 0 219.3 41 A 46.92 46.92 0 0 1 214.992 37.587 A 42.359 42.359 0 0 1 214.35 37 Q 212.1 34.9 210.5 32.3 Q 208.9 29.7 208.9 26.5 A 16.768 16.768 0 0 1 211.994 16.809 A 20.632 20.632 0 0 1 212 16.8 Q 215.1 12.3 219.75 9.05 Q 224.4 5.8 229.9 3.9 A 36.327 36.327 0 0 1 235.412 2.446 A 27.979 27.979 0 0 1 240.3 2 Q 243 2 245.4 2.65 A 11.414 11.414 0 0 1 248.255 3.838 A 10.108 10.108 0 0 1 249.55 4.75 A 10.458 10.458 0 0 1 252.147 7.994 A 12.187 12.187 0 0 1 252.35 8.4 A 9.941 9.941 0 0 1 253.086 10.62 Q 253.312 11.68 253.375 12.911 A 19.206 19.206 0 0 1 253.4 13.9 Q 253.4 15.3 253.15 16.7 Q 252.9 18.1 252.7 19.7 L 238.2 23.9 Q 238.4 23.1 238.55 22.3 Q 238.7 21.5 238.7 20.7 A 13.603 13.603 0 0 0 238.621 19.183 Q 238.444 17.609 237.867 16.665 A 3.4 3.4 0 0 0 237.65 16.35 A 3.513 3.513 0 0 0 236.528 15.384 Q 235.829 15.012 234.956 15 A 4.241 4.241 0 0 0 234.9 15 A 2.744 2.744 0 0 0 234.28 15.077 Q 233.687 15.216 232.95 15.6 A 12.267 12.267 0 0 0 231.512 16.487 A 15.173 15.173 0 0 0 230.65 17.15 Q 229.5 18.1 228.7 19.4 Q 227.9 20.7 227.9 22.2 A 7.03 7.03 0 0 0 228.149 24.115 A 5.517 5.517 0 0 0 229.25 26.2 A 15.901 15.901 0 0 0 231.137 28.076 A 20.125 20.125 0 0 0 232.6 29.2 Q 234.6 30.6 236.95 32.05 A 18.338 18.338 0 0 1 240.343 34.769 A 21.588 21.588 0 0 1 241.3 35.8 A 17.128 17.128 0 0 1 243.319 38.705 A 23.124 23.124 0 0 1 244.65 41.55 Q 245.699 44.232 245.933 48.032 A 36.992 36.992 0 0 1 246 50.3 A 25.193 25.193 0 0 1 245.242 56.58 A 21.595 21.595 0 0 1 243.85 60.45 Q 241.7 65 238.05 68.3 A 25.546 25.546 0 0 1 230.367 73.049 A 29.379 29.379 0 0 1 229.45 73.4 A 30.319 30.319 0 0 1 220.563 75.156 A 35.036 35.036 0 0 1 218.8 75.2 A 15.856 15.856 0 0 1 213.05 74.089 A 19.908 19.908 0 0 1 210.8 73.05 Q 206.8 70.9 203.1 66.2 Z M 991.4 66.2 L 998.8 51.7 A 8.808 8.808 0 0 0 999.578 52.888 Q 999.995 53.431 1000.53 53.982 A 15.883 15.883 0 0 0 1000.9 54.35 Q 1002.3 55.7 1004.05 56.7 A 24.192 24.192 0 0 0 1006.894 58.094 A 21.646 21.646 0 0 0 1007.55 58.35 Q 1009.3 59 1010.7 59 Q 1011.9 59 1013.2 58.6 Q 1014.5 58.2 1015.6 57.4 A 6.922 6.922 0 0 0 1016.837 56.257 A 6.049 6.049 0 0 0 1017.35 55.55 Q 1018 54.5 1018 53.1 A 7.158 7.158 0 0 0 1016.641 48.912 A 8.911 8.911 0 0 0 1016.45 48.65 A 20.653 20.653 0 0 0 1014.22 46.166 A 25.545 25.545 0 0 0 1012.6 44.75 A 92.61 92.61 0 0 0 1009.248 42.183 A 109.444 109.444 0 0 0 1007.6 41 A 46.92 46.92 0 0 1 1003.292 37.587 A 42.359 42.359 0 0 1 1002.65 37 Q 1000.4 34.9 998.8 32.3 Q 997.2 29.7 997.2 26.5 A 16.768 16.768 0 0 1 1000.294 16.809 A 20.632 20.632 0 0 1 1000.3 16.8 Q 1003.4 12.3 1008.05 9.05 Q 1012.7 5.8 1018.2 3.9 A 36.327 36.327 0 0 1 1023.712 2.446 A 27.979 27.979 0 0 1 1028.6 2 Q 1031.3 2 1033.7 2.65 A 11.414 11.414 0 0 1 1036.555 3.838 A 10.108 10.108 0 0 1 1037.85 4.75 A 10.458 10.458 0 0 1 1040.447 7.994 A 12.187 12.187 0 0 1 1040.65 8.4 A 9.941 9.941 0 0 1 1041.386 10.62 Q 1041.612 11.68 1041.675 12.911 A 19.206 19.206 0 0 1 1041.7 13.9 Q 1041.7 15.3 1041.45 16.7 Q 1041.2 18.1 1041 19.7 L 1026.5 23.9 Q 1026.7 23.1 1026.85 22.3 Q 1027 21.5 1027 20.7 A 13.603 13.603 0 0 0 1026.921 19.183 Q 1026.744 17.609 1026.167 16.665 A 3.4 3.4 0 0 0 1025.95 16.35 A 3.513 3.513 0 0 0 1024.828 15.384 Q 1024.129 15.012 1023.256 15 A 4.241 4.241 0 0 0 1023.2 15 A 2.744 2.744 0 0 0 1022.58 15.077 Q 1021.987 15.216 1021.25 15.6 A 12.267 12.267 0 0 0 1019.812 16.487 A 15.173 15.173 0 0 0 1018.95 17.15 Q 1017.8 18.1 1017 19.4 Q 1016.2 20.7 1016.2 22.2 A 7.03 7.03 0 0 0 1016.449 24.115 A 5.517 5.517 0 0 0 1017.55 26.2 A 15.901 15.901 0 0 0 1019.437 28.076 A 20.125 20.125 0 0 0 1020.9 29.2 Q 1022.9 30.6 1025.25 32.05 A 18.338 18.338 0 0 1 1028.643 34.769 A 21.588 21.588 0 0 1 1029.6 35.8 A 17.128 17.128 0 0 1 1031.619 38.705 A 23.124 23.124 0 0 1 1032.95 41.55 Q 1033.999 44.232 1034.233 48.032 A 36.992 36.992 0 0 1 1034.3 50.3 A 25.193 25.193 0 0 1 1033.542 56.58 A 21.595 21.595 0 0 1 1032.15 60.45 Q 1030 65 1026.35 68.3 A 25.546 25.546 0 0 1 1018.667 73.049 A 29.379 29.379 0 0 1 1017.75 73.4 A 30.319 30.319 0 0 1 1008.863 75.156 A 35.036 35.036 0 0 1 1007.1 75.2 A 15.856 15.856 0 0 1 1001.35 74.089 A 19.908 19.908 0 0 1 999.1 73.05 Q 995.1 70.9 991.4 66.2 Z M 859.8 70.1 L 827.5 75.1 L 840.6 4 L 872.2 1.3 Q 871.5 3.5 871 5.8 A 97.381 97.381 0 0 0 870.163 9.24 A 107.461 107.461 0 0 0 870.05 9.75 A 151.292 151.292 0 0 0 869.685 11.458 Q 869.523 12.239 869.387 12.941 A 87.26 87.26 0 0 0 869.3 13.4 Q 868.534 13.477 867.27 13.524 A 79.513 79.513 0 0 1 866.45 13.55 Q 864.6 13.6 862.5 13.65 Q 860.4 13.7 858.25 13.7 L 854.5 13.7 L 851 31.6 Q 854.1 31.4 856.8 31.3 Q 859 31.2 861.3 31.2 Q 863.6 31.2 864.7 31.1 Q 864.3 33.9 863.95 36.6 A 109.062 109.062 0 0 1 863.945 36.642 A 116.529 116.529 0 0 1 863.1 42.1 Q 862.137 42.196 860.016 42.246 A 126.455 126.455 0 0 1 859.85 42.25 Q 857.6 42.3 855.3 42.4 Q 852.7 42.5 849.6 42.6 L 846.2 61 L 860.8 58.7 L 859.8 70.1 Z M 989 70.1 L 956.7 75.1 L 969.8 4 L 1001.4 1.3 Q 1000.7 3.5 1000.2 5.8 A 97.381 97.381 0 0 0 999.363 9.24 A 107.461 107.461 0 0 0 999.25 9.75 A 151.292 151.292 0 0 0 998.885 11.458 Q 998.723 12.239 998.587 12.941 A 87.26 87.26 0 0 0 998.5 13.4 Q 997.734 13.477 996.47 13.524 A 79.513 79.513 0 0 1 995.65 13.55 Q 993.8 13.6 991.7 13.65 Q 989.6 13.7 987.45 13.7 L 983.7 13.7 L 980.2 31.6 Q 983.3 31.4 986 31.3 Q 988.2 31.2 990.5 31.2 Q 992.8 31.2 993.9 31.1 Q 993.5 33.9 993.15 36.6 A 109.062 109.062 0 0 1 993.145 36.642 A 116.529 116.529 0 0 1 992.3 42.1 Q 991.337 42.196 989.216 42.246 A 126.455 126.455 0 0 1 989.05 42.25 Q 986.8 42.3 984.5 42.4 Q 981.9 42.5 978.8 42.6 L 975.4 61 L 990 58.7 L 989 70.1 Z M 269.5 71.4 L 252.4 73.5 L 257 53.4 Q 257 49.1 256.85 44.05 Q 256.7 39 256.4 33.9 Q 256.1 28.8 255.8 24.05 A 1271.13 1271.13 0 0 1 255.557 20.104 Q 255.449 18.303 255.358 16.698 A 717.455 717.455 0 0 1 255.3 15.65 Q 255.121 12.385 254.942 10.28 A 82.282 82.282 0 0 0 254.9 9.8 L 254.7 7.6 L 271 1.4 L 271 13.6 L 271 18.7 Q 271 21.3 270.95 23.8 Q 270.9 26.3 270.9 28.5 L 270.9 32.2 A 589.171 589.171 0 0 0 271.952 29.425 Q 272.423 28.175 272.947 26.769 A 1238.071 1238.071 0 0 0 274.05 23.8 Q 275.9 18.8 277.5 14.1 Q 279.4 8.6 281.4 2.5 L 296.9 6 Q 292.6 14.6 288.5 23.1 Q 286.8 26.8 284.9 30.75 L 281.1 38.65 A 1940.103 1940.103 0 0 1 277.852 45.371 A 1763.015 1763.015 0 0 1 277.4 46.3 Q 275.6 50 274.1 53.2 Q 273.6 55.8 272.85 58.9 Q 272.1 62 271.4 64.8 Q 270.5 68.1 269.5 71.4 Z M 61.4 57.9 L 52.7 57.9 L 48.7 72.3 A 204.667 204.667 0 0 1 46.938 72.532 Q 46.156 72.632 45.297 72.736 A 373.215 373.215 0 0 1 43.5 72.95 Q 40.5 73.3 37.9 73.6 Q 34.7 74 31.6 74.4 Q 35.6 61.1 39.5 48.2 Q 41.1 42.8 42.85 36.9 Q 44.6 31 46.35 25.15 Q 48.1 19.3 49.7 13.9 Q 51.3 8.5 52.5 4 Q 59.3 3.5 66.35 2.8 Q 73.4 2.1 80.1 0.9 Q 79.8 4.1 79.45 8.85 Q 79.1 13.6 78.8 19.2 A 2594.46 2594.46 0 0 0 78.35 27.881 A 2945.153 2945.153 0 0 0 78.2 30.9 Q 77.9 37 77.6 42.9 Q 77.1 56.7 76.5 72.2 Q 73.5 72.7 70.5 73 Q 68 73.4 65 73.9 L 59.6 74.8 Q 60 71.5 60.4 68.3 Q 60.7 65.5 60.95 62.7 A 627.498 627.498 0 0 1 61.13 60.712 Q 61.203 59.931 61.27 59.228 A 324.173 324.173 0 0 1 61.4 57.9 Z M 186.1 57.9 L 177.4 57.9 L 173.4 72.3 A 204.667 204.667 0 0 1 171.638 72.532 Q 170.856 72.632 169.997 72.736 A 373.215 373.215 0 0 1 168.2 72.95 Q 165.2 73.3 162.6 73.6 Q 159.4 74 156.3 74.4 Q 160.3 61.1 164.2 48.2 Q 165.8 42.8 167.55 36.9 Q 169.3 31 171.05 25.15 Q 172.8 19.3 174.4 13.9 Q 176 8.5 177.2 4 Q 184 3.5 191.05 2.8 Q 198.1 2.1 204.8 0.9 Q 204.5 4.1 204.15 8.85 Q 203.8 13.6 203.5 19.2 A 2594.46 2594.46 0 0 0 203.05 27.881 A 2945.153 2945.153 0 0 0 202.9 30.9 Q 202.6 37 202.3 42.9 Q 201.8 56.7 201.2 72.2 Q 198.2 72.7 195.2 73 Q 192.7 73.4 189.7 73.9 L 184.3 74.8 Q 184.7 71.5 185.1 68.3 Q 185.4 65.5 185.65 62.7 A 627.498 627.498 0 0 1 185.83 60.712 Q 185.903 59.931 185.97 59.228 A 324.173 324.173 0 0 1 186.1 57.9 Z M 542 57.9 L 533.3 57.9 L 529.3 72.3 A 204.667 204.667 0 0 1 527.538 72.532 Q 526.756 72.632 525.897 72.736 A 373.215 373.215 0 0 1 524.1 72.95 Q 521.1 73.3 518.5 73.6 Q 515.3 74 512.2 74.4 Q 516.2 61.1 520.1 48.2 Q 521.7 42.8 523.45 36.9 Q 525.2 31 526.95 25.15 Q 528.7 19.3 530.3 13.9 Q 531.9 8.5 533.1 4 Q 539.9 3.5 546.95 2.8 Q 554 2.1 560.7 0.9 Q 560.4 4.1 560.05 8.85 Q 559.7 13.6 559.4 19.2 A 2594.46 2594.46 0 0 0 558.95 27.881 A 2945.153 2945.153 0 0 0 558.8 30.9 Q 558.5 37 558.2 42.9 Q 557.7 56.7 557.1 72.2 Q 554.1 72.7 551.1 73 Q 548.6 73.4 545.6 73.9 L 540.2 74.8 Q 540.6 71.5 541 68.3 Q 541.3 65.5 541.55 62.7 A 627.498 627.498 0 0 1 541.73 60.712 Q 541.803 59.931 541.87 59.228 A 324.173 324.173 0 0 1 542 57.9 Z M 750.7 57.9 L 742 57.9 L 738 72.3 A 204.667 204.667 0 0 1 736.238 72.532 Q 735.456 72.632 734.597 72.736 A 373.215 373.215 0 0 1 732.8 72.95 Q 729.8 73.3 727.2 73.6 Q 724 74 720.9 74.4 Q 724.9 61.1 728.8 48.2 Q 730.4 42.8 732.15 36.9 Q 733.9 31 735.65 25.15 Q 737.4 19.3 739 13.9 Q 740.6 8.5 741.8 4 Q 748.6 3.5 755.65 2.8 Q 762.7 2.1 769.4 0.9 Q 769.1 4.1 768.75 8.85 Q 768.4 13.6 768.1 19.2 A 2594.46 2594.46 0 0 0 767.65 27.881 A 2945.153 2945.153 0 0 0 767.5 30.9 Q 767.2 37 766.9 42.9 Q 766.4 56.7 765.8 72.2 Q 762.8 72.7 759.8 73 Q 757.3 73.4 754.3 73.9 L 748.9 74.8 Q 749.3 71.5 749.7 68.3 Q 750 65.5 750.25 62.7 A 627.498 627.498 0 0 1 750.43 60.712 Q 750.503 59.931 750.57 59.228 A 324.173 324.173 0 0 1 750.7 57.9 Z M 688.5 18.5 L 675.4 22 A 8.176 8.176 0 0 0 674.826 20.98 Q 674.072 19.858 673.182 19.587 A 1.983 1.983 0 0 0 672.6 19.5 Q 671.434 19.5 670.189 20.482 A 8.827 8.827 0 0 0 669.25 21.35 A 19.932 19.932 0 0 0 667.728 23.179 Q 666.999 24.163 666.279 25.342 A 36.927 36.927 0 0 0 665.8 26.15 A 60.926 60.926 0 0 0 663.919 29.69 A 77.126 77.126 0 0 0 662.5 32.75 Q 660.9 36.4 659.7 40.1 A 84.269 84.269 0 0 0 658.376 44.588 A 69.824 69.824 0 0 0 657.75 47.15 Q 657.034 50.347 657.002 52.406 A 12.247 12.247 0 0 0 657 52.6 Q 657 55.111 657.523 56.452 A 3.521 3.521 0 0 0 657.85 57.1 A 3.243 3.243 0 0 0 658.499 57.84 A 2.445 2.445 0 0 0 660.1 58.4 Q 660.914 58.4 661.893 57.934 A 7.949 7.949 0 0 0 662.6 57.55 A 11.014 11.014 0 0 0 664.627 55.955 A 12.944 12.944 0 0 0 665.2 55.35 Q 666.4 54 667.4 52.3 A 13.178 13.178 0 0 0 668.396 50.228 A 11.011 11.011 0 0 0 668.8 48.9 L 680.2 53.5 Q 677.8 59 674.85 63.05 A 43.254 43.254 0 0 1 671.534 67.091 A 33.845 33.845 0 0 1 668.65 69.85 Q 665.4 72.6 662.1 73.9 A 19.127 19.127 0 0 1 658.451 74.951 A 15.638 15.638 0 0 1 655.7 75.2 A 11.869 11.869 0 0 1 651.528 74.477 A 11.135 11.135 0 0 1 650.05 73.8 A 11.964 11.964 0 0 1 646.983 71.36 A 15.416 15.416 0 0 1 645.6 69.6 Q 643.7 66.8 642.55 62.7 A 29.112 29.112 0 0 1 641.725 58.549 Q 641.4 56.022 641.4 53.1 Q 641.4 43.7 644 34.55 A 63.457 63.457 0 0 1 648.758 22.475 A 55.831 55.831 0 0 1 651.3 18.1 A 43.567 43.567 0 0 1 657.859 10.088 A 37.657 37.657 0 0 1 662.45 6.35 Q 668.9 1.9 676.7 1.9 Q 679.1 1.9 681.3 2.9 Q 683.5 3.9 685.1 5.7 A 12.58 12.58 0 0 1 686.92 8.407 A 15.752 15.752 0 0 1 687.65 10.1 A 15.558 15.558 0 0 1 688.483 13.724 A 19.591 19.591 0 0 1 688.6 15.9 L 688.6 17.15 A 9.251 9.251 0 0 1 688.544 18.153 A 10.52 10.52 0 0 1 688.5 18.5 Z M 13.1 3.1 L 46.6 1.4 L 43.7 13.7 L 28 13.7 L 24.9 31.5 Q 28 31.4 30.8 31.4 L 35.5 31.4 A 96.426 96.426 0 0 0 36.631 31.394 Q 37.851 31.379 38.709 31.332 A 22.823 22.823 0 0 0 39.2 31.3 Q 38.9 34.1 38.45 36.8 Q 38 39.5 37.6 42.2 Q 36.3 42.2 33.9 42.15 A 266.773 266.773 0 0 1 29.585 42.024 A 292.194 292.194 0 0 1 28.95 42 A 611.395 611.395 0 0 0 26.327 41.903 Q 24.942 41.855 23.406 41.806 A 1000.249 1000.249 0 0 0 23.2 41.8 L 18.6 71.3 Q 15.2 71.9 11.9 72.6 Q 9.1 73.1 5.8 73.8 Q 2.5 74.5 0 75.1 Q 1.2 70.8 2.35 65.45 Q 3.5 60.1 4.65 54.2 Q 5.8 48.3 6.85 42.25 Q 7.9 36.2 8.9 30.6 Q 11 17.3 13.1 3.1 Z M 316.1 3.1 L 349.6 1.4 L 346.7 13.7 L 331 13.7 L 327.9 31.5 Q 331 31.4 333.8 31.4 L 338.5 31.4 A 96.426 96.426 0 0 0 339.631 31.394 Q 340.851 31.379 341.709 31.332 A 22.823 22.823 0 0 0 342.2 31.3 Q 341.9 34.1 341.45 36.8 Q 341 39.5 340.6 42.2 Q 339.3 42.2 336.9 42.15 A 266.773 266.773 0 0 1 332.585 42.024 A 292.194 292.194 0 0 1 331.95 42 A 611.395 611.395 0 0 0 329.327 41.903 Q 327.942 41.855 326.406 41.806 A 1000.249 1000.249 0 0 0 326.2 41.8 L 321.6 71.3 Q 318.2 71.9 314.9 72.6 Q 312.1 73.1 308.8 73.8 Q 305.5 74.5 303 75.1 Q 304.2 70.8 305.35 65.45 Q 306.5 60.1 307.65 54.2 Q 308.8 48.3 309.85 42.25 Q 310.9 36.2 311.9 30.6 Q 314 17.3 316.1 3.1 Z M 515.255 56.949 A 17.246 17.246 0 0 0 516.7 49.9 A 21.193 21.193 0 0 0 516.567 47.476 A 16.162 16.162 0 0 0 515.95 44.5 Q 515.2 42.1 514 40.35 A 20.414 20.414 0 0 0 513.309 39.401 A 17.335 17.335 0 0 0 511.4 37.3 A 18.914 18.914 0 0 0 511.122 37.047 Q 510.522 36.512 509.941 36.088 A 10.859 10.859 0 0 0 508.7 35.3 A 17.883 17.883 0 0 0 510.796 34.331 A 21.678 21.678 0 0 0 513.8 32.35 Q 516.3 30.4 518.25 27.7 Q 520.2 25 521.45 21.7 Q 522.7 18.4 522.7 14.6 Q 522.7 12.596 522.311 10.944 A 10.332 10.332 0 0 0 521.15 8 A 15.402 15.402 0 0 0 520.751 7.366 A 13.141 13.141 0 0 0 517.3 3.8 Q 515 2.2 512.2 1.6 Q 509.4 1 506.9 1 A 84.178 84.178 0 0 0 506.152 1.003 A 76.799 76.799 0 0 0 495.3 1.85 A 206.423 206.423 0 0 0 493.906 2.066 A 187.656 187.656 0 0 0 484.5 3.8 Q 481.9 21.8 479.05 39.55 Q 476.2 57.3 471.4 74.8 Q 474.6 75.4 478.3 75.4 A 46.511 46.511 0 0 0 480.634 75.341 A 53.596 53.596 0 0 0 486.85 74.65 Q 491.3 73.9 495.55 72.45 Q 499.8 71 503.65 68.85 A 35.115 35.115 0 0 0 505.06 68.019 A 30.674 30.674 0 0 0 510.4 63.85 Q 513.3 61 515 57.5 A 16.81 16.81 0 0 0 515.255 56.949 Z M 149.2 72.3 L 131.2 75.1 Q 133.5 64.1 135.6 53.4 Q 136.5 48.9 137.4 44 Q 138.3 39.1 139.15 34.35 Q 140 29.6 140.65 25.15 Q 141.3 20.7 141.8 17 A 26.863 26.863 0 0 0 138.322 16.775 A 27.561 27.561 0 0 0 137.15 16.8 Q 134.8 16.9 132.5 16.2 Q 132.586 14.825 132.598 13.081 A 83.837 83.837 0 0 0 132.6 12.5 Q 132.6 10.4 132.7 8.3 Q 132.8 6 132.9 3.4 Q 135.5 3.6 138.1 3.7 Q 140.7 3.8 143.3 3.8 Q 148.4 3.8 153.15 3.55 Q 157.9 3.3 161.95 2.95 Q 166 2.6 169.9 2.1 L 168.8 7.5 Q 168.3 9.8 167.85 12.2 A 126.512 126.512 0 0 1 167.52 13.902 Q 167.385 14.57 167.255 15.169 A 65.388 65.388 0 0 1 167 16.3 Q 164.8 16.9 162.55 17.15 Q 160.3 17.4 158.1 17.8 Q 157.4 21.2 156.6 25.35 A 368.165 368.165 0 0 0 155.238 32.842 A 405.858 405.858 0 0 0 155.05 33.95 Q 154.3 38.4 153.6 43 Q 152.9 47.6 152.2 51.8 Q 150.6 61.7 149.2 72.3 Z M 462.3 72.3 L 444.3 75.1 Q 446.6 64.1 448.7 53.4 Q 449.6 48.9 450.5 44 Q 451.4 39.1 452.25 34.35 Q 453.1 29.6 453.75 25.15 Q 454.4 20.7 454.9 17 A 26.863 26.863 0 0 0 451.422 16.775 A 27.561 27.561 0 0 0 450.25 16.8 Q 447.9 16.9 445.6 16.2 Q 445.686 14.825 445.698 13.081 A 83.837 83.837 0 0 0 445.7 12.5 Q 445.7 10.4 445.8 8.3 Q 445.9 6 446 3.4 Q 448.6 3.6 451.2 3.7 Q 453.8 3.8 456.4 3.8 Q 461.5 3.8 466.25 3.55 Q 471 3.3 475.05 2.95 Q 479.1 2.6 483 2.1 L 481.9 7.5 Q 481.4 9.8 480.95 12.2 A 126.512 126.512 0 0 1 480.62 13.902 Q 480.485 14.57 480.355 15.169 A 65.388 65.388 0 0 1 480.1 16.3 Q 477.9 16.9 475.65 17.15 Q 473.4 17.4 471.2 17.8 Q 470.5 21.2 469.7 25.35 A 368.165 368.165 0 0 0 468.338 32.842 A 405.858 405.858 0 0 0 468.15 33.95 Q 467.4 38.4 466.7 43 Q 466 47.6 465.3 51.8 Q 463.7 61.7 462.3 72.3 Z M 571.6 3.7 L 589.1 1.4 A 4459.118 4459.118 0 0 0 583.978 23.656 A 4109.026 4109.026 0 0 0 583.9 24 Q 582.8 28.7 581.7 33.75 Q 580.6 38.8 579.6 43.6 A 330.472 330.472 0 0 0 578.213 50.631 A 297.247 297.247 0 0 0 577.8 52.9 Q 577 57.4 576.5 60.9 Q 579 60.7 581.85 60.65 A 360.848 360.848 0 0 1 584.219 60.616 Q 585.663 60.6 586.9 60.6 Q 587 62.5 587.2 64.35 Q 587.4 66.2 587.65 67.7 Q 587.865 68.989 588.006 70.02 A 53.249 53.249 0 0 1 588.05 70.35 A 44.7 44.7 0 0 0 588.118 70.848 Q 588.205 71.463 588.272 71.779 A 3.58 3.58 0 0 0 588.3 71.9 A 23.585 23.585 0 0 1 586.938 71.862 A 21.484 21.484 0 0 1 586.75 71.85 A 23.04 23.04 0 0 0 585.399 71.801 A 25.303 25.303 0 0 0 585.2 71.8 A 107.776 107.776 0 0 0 580.772 71.895 A 126.725 126.725 0 0 0 578.65 72 Q 575.2 72.2 571.7 72.6 Q 568.2 73 564.85 73.65 Q 561.5 74.3 558.8 75.2 Q 559.4 70.7 560.2 65.2 Q 561 59.7 562.05 53.8 Q 563.1 47.9 564.15 41.9 A 500.3 500.3 0 0 1 565.753 33.181 A 441.651 441.651 0 0 1 566.3 30.4 Q 568.8 17.3 571.6 3.7 Z M 601.8 3.7 L 619.3 1.4 A 4459.118 4459.118 0 0 0 614.178 23.656 A 4109.026 4109.026 0 0 0 614.1 24 Q 613 28.7 611.9 33.75 Q 610.8 38.8 609.8 43.6 A 330.472 330.472 0 0 0 608.413 50.631 A 297.247 297.247 0 0 0 608 52.9 Q 607.2 57.4 606.7 60.9 Q 609.2 60.7 612.05 60.65 A 360.848 360.848 0 0 1 614.419 60.616 Q 615.863 60.6 617.1 60.6 Q 617.2 62.5 617.4 64.35 Q 617.6 66.2 617.85 67.7 Q 618.065 68.989 618.206 70.02 A 53.249 53.249 0 0 1 618.25 70.35 A 44.7 44.7 0 0 0 618.318 70.848 Q 618.405 71.463 618.472 71.779 A 3.58 3.58 0 0 0 618.5 71.9 A 23.585 23.585 0 0 1 617.138 71.862 A 21.484 21.484 0 0 1 616.95 71.85 A 23.04 23.04 0 0 0 615.599 71.801 A 25.303 25.303 0 0 0 615.4 71.8 A 107.776 107.776 0 0 0 610.972 71.895 A 126.725 126.725 0 0 0 608.85 72 Q 605.4 72.2 601.9 72.6 Q 598.4 73 595.05 73.65 Q 591.7 74.3 589 75.2 Q 589.6 70.7 590.4 65.2 Q 591.2 59.7 592.25 53.8 Q 593.3 47.9 594.35 41.9 A 500.3 500.3 0 0 1 595.953 33.181 A 441.651 441.651 0 0 1 596.5 30.4 Q 599 17.3 601.8 3.7 Z M 780.3 3.7 L 797.8 1.4 A 4459.118 4459.118 0 0 0 792.678 23.656 A 4109.026 4109.026 0 0 0 792.6 24 Q 791.5 28.7 790.4 33.75 Q 789.3 38.8 788.3 43.6 A 330.472 330.472 0 0 0 786.913 50.631 A 297.247 297.247 0 0 0 786.5 52.9 Q 785.7 57.4 785.2 60.9 Q 787.7 60.7 790.55 60.65 A 360.848 360.848 0 0 1 792.919 60.616 Q 794.363 60.6 795.6 60.6 Q 795.7 62.5 795.9 64.35 Q 796.1 66.2 796.35 67.7 Q 796.565 68.989 796.706 70.02 A 53.249 53.249 0 0 1 796.75 70.35 A 44.7 44.7 0 0 0 796.818 70.848 Q 796.905 71.463 796.972 71.779 A 3.58 3.58 0 0 0 797 71.9 A 23.585 23.585 0 0 1 795.638 71.862 A 21.484 21.484 0 0 1 795.45 71.85 A 23.04 23.04 0 0 0 794.099 71.801 A 25.303 25.303 0 0 0 793.9 71.8 A 107.776 107.776 0 0 0 789.472 71.895 A 126.725 126.725 0 0 0 787.35 72 Q 783.9 72.2 780.4 72.6 Q 776.9 73 773.55 73.65 Q 770.2 74.3 767.5 75.2 Q 768.1 70.7 768.9 65.2 Q 769.7 59.7 770.75 53.8 Q 771.8 47.9 772.85 41.9 A 500.3 500.3 0 0 1 774.453 33.181 A 441.651 441.651 0 0 1 775 30.4 Q 777.5 17.3 780.3 3.7 Z M 810.5 3.7 L 828 1.4 A 4459.118 4459.118 0 0 0 822.878 23.656 A 4109.026 4109.026 0 0 0 822.8 24 Q 821.7 28.7 820.6 33.75 Q 819.5 38.8 818.5 43.6 A 330.472 330.472 0 0 0 817.113 50.631 A 297.247 297.247 0 0 0 816.7 52.9 Q 815.9 57.4 815.4 60.9 Q 817.9 60.7 820.75 60.65 A 360.848 360.848 0 0 1 823.119 60.616 Q 824.563 60.6 825.8 60.6 Q 825.9 62.5 826.1 64.35 Q 826.3 66.2 826.55 67.7 Q 826.765 68.989 826.906 70.02 A 53.249 53.249 0 0 1 826.95 70.35 A 44.7 44.7 0 0 0 827.018 70.848 Q 827.105 71.463 827.172 71.779 A 3.58 3.58 0 0 0 827.2 71.9 A 23.585 23.585 0 0 1 825.838 71.862 A 21.484 21.484 0 0 1 825.65 71.85 A 23.04 23.04 0 0 0 824.299 71.801 A 25.303 25.303 0 0 0 824.1 71.8 A 107.776 107.776 0 0 0 819.672 71.895 A 126.725 126.725 0 0 0 817.55 72 Q 814.1 72.2 810.6 72.6 Q 807.1 73 803.75 73.65 Q 800.4 74.3 797.7 75.2 Q 798.3 70.7 799.1 65.2 Q 799.9 59.7 800.95 53.8 Q 802 47.9 803.05 41.9 A 500.3 500.3 0 0 1 804.653 33.181 A 441.651 441.651 0 0 1 805.2 30.4 Q 807.7 17.3 810.5 3.7 Z M 391.873 31.726 A 68.708 68.708 0 0 0 392.7 20.9 Q 392.7 17.2 392 13.5 Q 391.3 9.8 389.65 6.85 Q 388 3.9 385.05 2.05 Q 382.1 0.2 377.6 0.2 Q 372.4 0.2 367.6 2.7 A 33.008 33.008 0 0 0 364.515 4.529 A 38.007 38.007 0 0 0 358.6 9.45 A 53.251 53.251 0 0 0 356.544 11.653 A 60.371 60.371 0 0 0 350.9 19.2 Q 347.4 24.7 345 30.8 Q 342.6 36.9 341.2 43.1 A 60.989 60.989 0 0 0 340.403 47.292 A 50.214 50.214 0 0 0 339.8 54.9 A 47.537 47.537 0 0 0 339.826 56.479 Q 339.897 58.614 340.164 60.485 A 25.335 25.335 0 0 0 340.95 64.15 A 25.901 25.901 0 0 0 341.097 64.626 Q 342.225 68.153 344.1 70.45 A 15.159 15.159 0 0 0 344.353 70.752 A 13.078 13.078 0 0 0 348.8 74.15 Q 351.5 75.4 354.8 75.4 A 19.147 19.147 0 0 0 358.816 74.959 A 25.014 25.014 0 0 0 363 73.65 A 30.714 30.714 0 0 0 366.743 71.812 A 38.242 38.242 0 0 0 371.5 68.55 Q 375.7 65.2 379.55 60.45 A 49.519 49.519 0 0 0 381.64 57.675 A 56.611 56.611 0 0 0 386.3 49.65 A 60.43 60.43 0 0 0 388.02 45.701 A 70.622 70.622 0 0 0 390.95 36.35 A 59.868 59.868 0 0 0 391.873 31.726 Z M 441.173 31.726 A 68.708 68.708 0 0 0 442 20.9 Q 442 17.2 441.3 13.5 Q 440.6 9.8 438.95 6.85 Q 437.3 3.9 434.35 2.05 Q 431.4 0.2 426.9 0.2 Q 421.7 0.2 416.9 2.7 A 33.008 33.008 0 0 0 413.815 4.529 A 38.007 38.007 0 0 0 407.9 9.45 A 53.251 53.251 0 0 0 405.844 11.653 A 60.371 60.371 0 0 0 400.2 19.2 Q 396.7 24.7 394.3 30.8 Q 391.9 36.9 390.5 43.1 A 60.989 60.989 0 0 0 389.703 47.292 A 50.214 50.214 0 0 0 389.1 54.9 A 47.537 47.537 0 0 0 389.126 56.479 Q 389.197 58.614 389.464 60.485 A 25.335 25.335 0 0 0 390.25 64.15 A 25.901 25.901 0 0 0 390.397 64.626 Q 391.525 68.153 393.4 70.45 A 15.159 15.159 0 0 0 393.653 70.752 A 13.078 13.078 0 0 0 398.1 74.15 Q 400.8 75.4 404.1 75.4 A 19.147 19.147 0 0 0 408.116 74.959 A 25.014 25.014 0 0 0 412.3 73.65 A 30.714 30.714 0 0 0 416.043 71.812 A 38.242 38.242 0 0 0 420.8 68.55 Q 425 65.2 428.85 60.45 A 49.519 49.519 0 0 0 430.94 57.675 A 56.611 56.611 0 0 0 435.6 49.65 A 60.43 60.43 0 0 0 437.32 45.701 A 70.622 70.622 0 0 0 440.25 36.35 A 59.868 59.868 0 0 0 441.173 31.726 Z M 354.7 52.3 A 6.758 6.758 0 0 0 354.872 53.786 A 8.426 8.426 0 0 0 355.1 54.6 Q 355.5 55.8 356.2 56.7 A 6.437 6.437 0 0 0 357.63 58.041 A 7.455 7.455 0 0 0 357.95 58.25 Q 359 58.9 360.2 58.9 Q 364.7 58.9 368.2 55.8 A 25.126 25.126 0 0 0 373.368 49.371 A 29.153 29.153 0 0 0 374 48.2 Q 376.3 43.7 377.55 38.6 Q 378.758 33.669 378.799 29.58 A 28.529 28.529 0 0 0 378.8 29.3 Q 378.8 28.1 378.65 26.7 A 11.076 11.076 0 0 0 378.302 24.87 A 9.669 9.669 0 0 0 378.05 24.1 Q 377.6 22.9 376.65 22.05 A 3.22 3.22 0 0 0 375.23 21.325 Q 374.713 21.2 374.1 21.2 Q 370.9 21.2 368.2 22.8 A 17.794 17.794 0 0 0 364.053 26.228 A 20.719 20.719 0 0 0 363.35 27.05 A 29.263 29.263 0 0 0 360.219 31.818 A 33.544 33.544 0 0 0 359.6 33.05 Q 358 36.4 356.85 39.85 Q 355.7 43.3 355.2 46.6 A 52.43 52.43 0 0 0 354.895 48.948 Q 354.773 50.106 354.727 51.126 A 26.226 26.226 0 0 0 354.7 52.3 Z M 404 52.3 A 6.758 6.758 0 0 0 404.172 53.786 A 8.426 8.426 0 0 0 404.4 54.6 Q 404.8 55.8 405.5 56.7 A 6.437 6.437 0 0 0 406.93 58.041 A 7.455 7.455 0 0 0 407.25 58.25 Q 408.3 58.9 409.5 58.9 Q 414 58.9 417.5 55.8 A 25.126 25.126 0 0 0 422.668 49.371 A 29.153 29.153 0 0 0 423.3 48.2 Q 425.6 43.7 426.85 38.6 Q 428.058 33.669 428.099 29.58 A 28.529 28.529 0 0 0 428.1 29.3 Q 428.1 28.1 427.95 26.7 A 11.076 11.076 0 0 0 427.602 24.87 A 9.669 9.669 0 0 0 427.35 24.1 Q 426.9 22.9 425.95 22.05 A 3.22 3.22 0 0 0 424.53 21.325 Q 424.013 21.2 423.4 21.2 Q 420.2 21.2 417.5 22.8 A 17.794 17.794 0 0 0 413.353 26.228 A 20.719 20.719 0 0 0 412.65 27.05 A 29.263 29.263 0 0 0 409.519 31.818 A 33.544 33.544 0 0 0 408.9 33.05 Q 407.3 36.4 406.15 39.85 Q 405 43.3 404.5 46.6 A 52.43 52.43 0 0 0 404.195 48.948 Q 404.073 50.106 404.027 51.126 A 26.226 26.226 0 0 0 404 52.3 Z M 61.3 22.8 L 55.1 47.9 A 10.899 10.899 0 0 0 55.332 47.897 Q 55.655 47.89 56.198 47.866 A 97.941 97.941 0 0 0 56.55 47.85 Q 57.6 47.8 58.75 47.75 Q 59.9 47.7 60.9 47.65 Q 61.9 47.6 62.3 47.5 Q 62.3 46.947 62.427 45.674 A 64.141 64.141 0 0 1 62.45 45.45 A 124.263 124.263 0 0 0 62.591 44.003 Q 62.66 43.242 62.73 42.394 A 208.597 208.597 0 0 0 62.75 42.15 Q 62.9 40.3 63.1 38.1 Q 63.3 35.9 63.5 33.8 Q 63.9 28.7 64.5 22.8 L 65.1 14.1 L 63.6 14.2 L 61.3 22.8 Z M 186 22.8 L 179.8 47.9 A 10.899 10.899 0 0 0 180.032 47.897 Q 180.355 47.89 180.898 47.866 A 97.941 97.941 0 0 0 181.25 47.85 Q 182.3 47.8 183.45 47.75 Q 184.6 47.7 185.6 47.65 Q 186.6 47.6 187 47.5 Q 187 46.947 187.127 45.674 A 64.141 64.141 0 0 1 187.15 45.45 A 124.263 124.263 0 0 0 187.291 44.003 Q 187.36 43.242 187.43 42.394 A 208.597 208.597 0 0 0 187.45 42.15 Q 187.6 40.3 187.8 38.1 Q 188 35.9 188.2 33.8 Q 188.6 28.7 189.2 22.8 L 189.8 14.1 L 188.3 14.2 L 186 22.8 Z M 541.9 22.8 L 535.7 47.9 A 10.899 10.899 0 0 0 535.932 47.897 Q 536.255 47.89 536.798 47.866 A 97.941 97.941 0 0 0 537.15 47.85 Q 538.2 47.8 539.35 47.75 Q 540.5 47.7 541.5 47.65 Q 542.5 47.6 542.9 47.5 Q 542.9 46.947 543.027 45.674 A 64.141 64.141 0 0 1 543.05 45.45 A 124.263 124.263 0 0 0 543.191 44.003 Q 543.26 43.242 543.33 42.394 A 208.597 208.597 0 0 0 543.35 42.15 Q 543.5 40.3 543.7 38.1 Q 543.9 35.9 544.1 33.8 Q 544.5 28.7 545.1 22.8 L 545.7 14.1 L 544.2 14.2 L 541.9 22.8 Z M 750.6 22.8 L 744.4 47.9 A 10.899 10.899 0 0 0 744.632 47.897 Q 744.955 47.89 745.498 47.866 A 97.941 97.941 0 0 0 745.85 47.85 Q 746.9 47.8 748.05 47.75 Q 749.2 47.7 750.2 47.65 Q 751.2 47.6 751.6 47.5 Q 751.6 46.947 751.727 45.674 A 64.141 64.141 0 0 1 751.75 45.45 A 124.263 124.263 0 0 0 751.891 44.003 Q 751.96 43.242 752.03 42.394 A 208.597 208.597 0 0 0 752.05 42.15 Q 752.2 40.3 752.4 38.1 Q 752.6 35.9 752.8 33.8 Q 753.2 28.7 753.8 22.8 L 754.4 14.1 L 752.9 14.2 L 750.6 22.8 Z M 493.46 41.495 A 247.214 247.214 0 0 0 493.8 39.5 A 3.572 3.572 0 0 1 494.14 39.432 A 2.785 2.785 0 0 1 494.55 39.4 L 495.4 39.4 Q 496.9 39.4 498.6 39.75 Q 500.3 40.1 501.75 40.9 A 9.008 9.008 0 0 1 502.126 41.12 A 7.718 7.718 0 0 1 504.15 42.9 A 4.241 4.241 0 0 1 504.932 44.494 A 5.621 5.621 0 0 1 505.1 45.9 A 7.994 7.994 0 0 1 505.087 46.367 A 6.204 6.204 0 0 1 503.6 50.15 A 10.712 10.712 0 0 1 503.214 50.577 A 11.201 11.201 0 0 1 499.9 52.95 Q 497.7 54 495.3 54.5 A 59.769 59.769 0 0 1 494.635 54.635 Q 493.652 54.828 492.758 54.968 A 35.408 35.408 0 0 1 491 55.2 A 212.562 212.562 0 0 1 491.245 53.701 Q 491.509 52.122 491.75 50.85 Q 492.1 49 492.4 47.3 Q 492.7 45.6 493.05 43.75 A 141.875 141.875 0 0 0 493.149 43.219 Q 493.3 42.406 493.46 41.495 Z M 499.3 15.3 L 498.3 15.3 A 135.869 135.869 0 0 0 498.143 16.181 Q 498.075 16.572 498.001 17.002 A 247.713 247.713 0 0 0 497.85 17.9 Q 497.6 19.4 497.3 21.05 Q 497 22.7 496.65 24.3 A 75.673 75.673 0 0 0 496.409 25.444 Q 496.294 26.01 496.202 26.516 A 40.541 40.541 0 0 0 496.1 27.1 Q 498.3 26.7 500.5 26 A 33.244 33.244 0 0 0 502.772 25.19 A 25.699 25.699 0 0 0 504.45 24.45 Q 505.908 23.742 506.88 22.93 A 7.631 7.631 0 0 0 507.25 22.6 A 3.892 3.892 0 0 0 507.869 21.855 A 2.693 2.693 0 0 0 508.3 20.4 A 4.084 4.084 0 0 0 508.151 19.272 A 3.157 3.157 0 0 0 507.4 17.95 A 6.016 6.016 0 0 0 506.137 16.945 A 8.021 8.021 0 0 0 505.05 16.4 Q 503.6 15.8 502.05 15.55 A 21.878 21.878 0 0 0 500.761 15.379 Q 500.171 15.32 499.644 15.305 A 12.247 12.247 0 0 0 499.3 15.3 Z" vector-effect="non-scaling-stroke"/>
  </g>
</svg>
